<svg width="18" height="19" viewBox="0 0 18 19" fill="none" xmlns="http://www.w3.org/2000/svg">
<g clip-path="url(#clip0_16_624)">
<path d="M16.9217 1.68911C16.3721 0.982735 15.6299 0.59375 14.8316 0.59375C14.0332 0.59375 13.2911 0.982735 12.7415 1.68911C12.2216 2.35742 11.9353 3.23879 11.9353 4.17087C11.9353 5.10294 12.2216 5.98431 12.7415 6.65263C13.1715 7.20556 13.7198 7.56394 14.3205 7.69356V12.7219C14.3205 15.0888 12.3945 17.0144 10.0272 17.0144C7.65981 17.0144 5.73383 15.0888 5.73383 12.7219V10.4734H9.65234C9.93465 10.4734 10.1635 10.2446 10.1635 9.96239V1.10477C10.1635 0.82251 9.93465 0.59375 9.65234 0.59375H0.793093C0.510784 0.59375 0.281982 0.82251 0.281982 1.10477V9.96239C0.281982 10.2446 0.510784 10.4734 0.793093 10.4734H4.71161V12.7219C4.71161 15.6524 7.09612 18.0365 10.0272 18.0365C12.9582 18.0365 15.3427 15.6524 15.3427 12.7219V7.69356C15.9434 7.56381 16.4915 7.20543 16.9217 6.65263C17.4416 5.98431 17.7279 5.10294 17.7279 4.17087C17.7279 3.23879 17.4416 2.35742 16.9217 1.68911ZM1.3042 1.61578H9.14123V9.45138H1.3042V1.61578ZM16.1147 6.02517C15.7632 6.4771 15.3076 6.72595 14.8316 6.72595C14.3556 6.72595 13.9 6.4771 13.5485 6.02517C13.1674 5.53531 12.9575 4.87684 12.9575 4.17087C12.9575 3.46489 13.1674 2.80643 13.5485 2.31657C13.9 1.86464 14.3556 1.61578 14.8316 1.61578C15.3076 1.61578 15.7632 1.86464 16.1147 2.31657C16.4958 2.80643 16.7057 3.46489 16.7057 4.17087C16.7057 4.87684 16.4958 5.53531 16.1147 6.02517Z" fill="#C4C4C4"/>
<path d="M7.92078 11.9443C7.32302 12.5421 7.32302 13.5147 7.92237 14.1139L9.66734 15.8442C9.7669 15.9429 9.89707 15.9923 10.0272 15.9923C10.1574 15.9923 10.2876 15.9429 10.3872 15.8442L12.1337 14.1124C12.7316 13.5147 12.7316 12.5421 12.1337 11.9443C11.556 11.3669 10.6285 11.3474 10.0272 11.8857C9.42602 11.3474 8.49844 11.3669 7.92078 11.9443ZM10.6881 12.6671C10.7846 12.5706 10.9129 12.5174 11.0495 12.5174C11.186 12.5174 11.3143 12.5706 11.4108 12.6671C11.5073 12.7636 11.5606 12.8919 11.5606 13.0284C11.5606 13.1649 11.5073 13.2932 11.4123 13.3882L10.0272 14.7616L8.64365 13.3897C8.54715 13.2932 8.49391 13.1649 8.49391 13.0284C8.49391 12.8919 8.54715 12.7636 8.64365 12.6671C8.74015 12.5706 8.86846 12.5174 9.00502 12.5174C9.14158 12.5174 9.26989 12.5706 9.36639 12.6671L9.66587 12.9664C9.86539 13.166 10.189 13.166 10.3886 12.9664L10.6881 12.6671Z" fill="#C4C4C4"/>
<path d="M8.119 5.53346C8.119 3.9368 6.81966 2.6377 5.22271 2.6377C3.62575 2.6377 2.32642 3.9368 2.32642 5.53346C2.32642 7.13012 3.62575 8.42922 5.22271 8.42922C6.81966 8.42922 8.119 7.13012 8.119 5.53346ZM3.34864 5.53346C3.34864 4.50025 4.18931 3.65973 5.22271 3.65973C6.25611 3.65973 7.09678 4.50025 7.09678 5.53346C7.09678 6.56667 6.25611 7.40719 5.22271 7.40719C4.18931 7.40719 3.34864 6.56667 3.34864 5.53346Z" fill="#C4C4C4"/>
<path d="M5.73389 5.53319V4.85184C5.73389 4.56958 5.50509 4.34082 5.22278 4.34082C4.94047 4.34082 4.71167 4.56958 4.71167 4.85184V5.53319C4.71167 5.81545 4.94047 6.04421 5.22278 6.04421C5.50509 6.04421 5.73389 5.81545 5.73389 5.53319Z" fill="#C4C4C4"/>
</g>
<defs>
<clipPath id="clip0_16_624">
<rect width="17.4459" height="17.4427" fill="white" transform="translate(0.281982 0.59375)"/>
</clipPath>
</defs>
</svg>
