<svg width="18" height="17" viewBox="0 0 18 17" fill="none" xmlns="http://www.w3.org/2000/svg">
<g clip-path="url(#clip0_16_645)">
<path d="M15.7373 0.567383H2.20388C1.40815 0.567383 0.760742 1.17968 0.760742 1.93226V14.7318C0.760742 15.4844 1.40815 16.0967 2.20388 16.0967H15.7373C16.533 16.0967 17.1804 15.4844 17.1804 14.7318V1.93226C17.1804 1.17968 16.533 0.567383 15.7373 0.567383ZM16.2183 14.7318C16.2183 14.9826 16.0025 15.1867 15.7373 15.1867H2.20388C1.93868 15.1867 1.72283 14.9826 1.72283 14.7318V1.93226C1.72283 1.68144 1.93868 1.4773 2.20388 1.4773H15.7373C16.0025 1.4773 16.2183 1.68144 16.2183 1.93226V14.7318Z" fill="white"/>
<path d="M14.5185 4.19687C12.9058 3.05296 10.9872 2.44824 8.97046 2.44824C6.95371 2.44824 5.03516 3.05296 3.42241 4.19687C3.32031 4.26938 3.25279 4.3772 3.23475 4.49674C3.21684 4.61629 3.24979 4.73773 3.32645 4.83429L5.86584 8.02943C5.96042 8.14839 6.10474 8.21106 6.2508 8.21106C6.35115 8.21106 6.45249 8.18144 6.53906 8.12007C7.24584 7.61878 8.08654 7.35375 8.97046 7.35375C9.85426 7.35375 10.6951 7.61878 11.4019 8.12007C11.6142 8.27077 11.9155 8.23014 12.075 8.02943L14.6144 4.83429C14.6911 4.73773 14.7241 4.61629 14.706 4.49674C14.6881 4.37732 14.6206 4.26938 14.5185 4.19687ZM11.5811 7.13646C10.9322 6.76088 10.2092 6.5334 9.45151 6.46563V5.07895C9.45151 4.82766 9.23617 4.62399 8.97046 4.62399C8.70476 4.62399 8.48942 4.82766 8.48942 5.07895V6.46563C7.73177 6.5334 7.0087 6.76088 6.35979 7.13646L4.39314 4.6619C5.75222 3.80755 7.32489 3.35816 8.97046 3.35816C10.616 3.35816 12.1887 3.80755 13.5478 4.6619L11.5811 7.13646Z" fill="white"/>
</g>
<defs>
<clipPath id="clip0_16_645">
<rect width="16.4197" height="15.5293" fill="white" transform="translate(0.760742 0.567383)"/>
</clipPath>
</defs>
</svg>
