<svg width="14" height="19" viewBox="0 0 14 19" fill="none" xmlns="http://www.w3.org/2000/svg">
<path d="M7.02344 8.08634L8.41436 7.18652L10.1816 9.91788L8.79065 10.8173L7.02344 8.08634Z" fill="#C4C4C4"/>
<path d="M12.085 8.82084L11.3621 7.70339L9.9712 8.60321L10.694 9.72023C11.1772 10.4671 11.422 11.2781 11.422 12.1318C11.422 14.3279 9.62724 16.6982 6.72772 16.6982C3.82819 16.6982 2.03382 14.3279 2.03382 12.1318C2.03382 11.2906 2.28554 10.4567 2.76183 9.72023L6.72772 3.59084L9.07122 7.21254L10.4621 6.31272L6.72772 0.541016L1.3709 8.82084C0.720482 9.82538 0.376953 10.9704 0.376953 12.1318C0.376953 15.563 3.22605 18.3543 6.72772 18.3543C10.2298 18.3543 13.0789 15.563 13.0789 12.1318C13.0789 10.9704 12.7354 9.82538 12.085 8.82084Z" fill="#C4C4C4"/>
</svg>
