<svg width="197" height="51" viewBox="0 0 197 51" fill="none" xmlns="http://www.w3.org/2000/svg">
<path d="M71.0298 11.7339V13.9135H63.3005V11.7339H71.0298ZM64.0573 5.66954V20.3613H61.2824V5.66954H64.0573ZM73.0883 5.66954V20.3613H70.3134V5.66954H73.0883Z" fill="#363636"/>
<path d="M81.5191 18.0405V13.0053C81.5191 12.6354 81.4552 12.3158 81.3273 12.0467C81.1995 11.7777 81.0044 11.5691 80.7421 11.4211C80.4797 11.2731 80.1468 11.1991 79.7431 11.1991C79.3866 11.1991 79.0738 11.2597 78.8047 11.3808C78.5424 11.5019 78.3406 11.6734 78.1993 11.8954C78.058 12.1106 77.9874 12.3595 77.9874 12.6421H75.3134C75.3134 12.1914 75.421 11.7642 75.6363 11.3606C75.8516 10.9502 76.1576 10.587 76.5545 10.2708C76.9582 9.94792 77.4391 9.69565 77.9975 9.51402C78.5625 9.3324 79.1949 9.24158 79.8945 9.24158C80.7219 9.24158 81.4585 9.38285 82.1043 9.66538C82.7568 9.94119 83.2681 10.3583 83.6381 10.9166C84.0148 11.4749 84.2031 12.1779 84.2031 13.0255V17.7882C84.2031 18.3331 84.2368 18.8006 84.304 19.1908C84.378 19.5743 84.4857 19.9072 84.6269 20.1898V20.3613H81.9126C81.7848 20.0855 81.6872 19.7357 81.62 19.3119C81.5527 18.8814 81.5191 18.4576 81.5191 18.0405ZM81.8924 13.7117L81.9126 15.2959H80.2275C79.8104 15.2959 79.4438 15.3396 79.1276 15.4271C78.8114 15.5078 78.5525 15.6289 78.3506 15.7903C78.1488 15.945 77.9975 16.1334 77.8966 16.3554C77.7957 16.5706 77.7452 16.8162 77.7452 17.092C77.7452 17.3611 77.8058 17.6032 77.9268 17.8185C78.0547 18.0338 78.2363 18.2053 78.4717 18.3331C78.7139 18.4542 78.9964 18.5147 79.3193 18.5147C79.7902 18.5147 80.2006 18.4206 80.5504 18.2322C80.9002 18.0371 81.1726 17.8017 81.3677 17.5259C81.5628 17.2501 81.6671 16.9877 81.6805 16.7388L82.4474 17.8891C82.3532 18.1649 82.2119 18.4576 82.0236 18.767C81.8352 19.0765 81.5931 19.3657 81.2971 19.6348C81.0011 19.9039 80.6446 20.1259 80.2275 20.3008C79.8104 20.4757 79.3261 20.5631 78.7744 20.5631C78.0681 20.5631 77.4358 20.4219 76.8774 20.1393C76.3191 19.8568 75.8785 19.47 75.5556 18.9789C75.2327 18.4878 75.0712 17.9295 75.0712 17.3039C75.0712 16.7254 75.1789 16.2141 75.3941 15.7701C75.6094 15.3262 75.9289 14.9528 76.3527 14.6501C76.7765 14.3406 77.3012 14.1086 77.9268 13.9538C78.5592 13.7924 79.2823 13.7117 80.0963 13.7117H81.8924Z" fill="#363636"/>
<path d="M89.0619 11.6734V20.3613H86.398V9.44339H88.9206L89.0619 11.6734ZM92.3817 9.37276L92.3413 11.855C92.1933 11.8281 92.0252 11.8079 91.8368 11.7945C91.6552 11.781 91.4836 11.7743 91.3222 11.7743C90.9118 11.7743 90.5519 11.8315 90.2425 11.9458C89.9331 12.0535 89.6741 12.2116 89.4655 12.4201C89.2637 12.6286 89.109 12.8843 89.0014 13.187C88.8937 13.483 88.8332 13.8193 88.8197 14.196L88.2446 14.1254C88.2446 13.4325 88.3152 12.7901 88.4565 12.1981C88.5977 11.6061 88.8029 11.0881 89.072 10.6442C89.3411 10.2002 89.6774 9.8571 90.081 9.61493C90.4914 9.36603 90.9623 9.24158 91.4937 9.24158C91.6417 9.24158 91.7998 9.25503 91.968 9.28194C92.1429 9.30212 92.2808 9.3324 92.3817 9.37276Z" fill="#363636"/>
<path d="M97.4423 18.3432L99.9851 9.44339H102.77L99.0265 20.3613H97.3313L97.4423 18.3432ZM95.5856 9.44339L98.1587 18.3634L98.2495 20.3613H96.5442L92.7906 9.44339H95.5856Z" fill="#363636"/>
<path d="M109.818 18.0405V13.0053C109.818 12.6354 109.755 12.3158 109.627 12.0467C109.499 11.7777 109.304 11.5691 109.041 11.4211C108.779 11.2731 108.446 11.1991 108.043 11.1991C107.686 11.1991 107.373 11.2597 107.104 11.3808C106.842 11.5019 106.64 11.6734 106.499 11.8954C106.357 12.1106 106.287 12.3595 106.287 12.6421H103.613C103.613 12.1914 103.72 11.7642 103.936 11.3606C104.151 10.9502 104.457 10.587 104.854 10.2708C105.258 9.94792 105.739 9.69565 106.297 9.51402C106.862 9.3324 107.494 9.24158 108.194 9.24158C109.021 9.24158 109.758 9.38285 110.404 9.66538C111.056 9.94119 111.567 10.3583 111.937 10.9166C112.314 11.4749 112.503 12.1779 112.503 13.0255V17.7882C112.503 18.3331 112.536 18.8006 112.603 19.1908C112.677 19.5743 112.785 19.9072 112.926 20.1898V20.3613H110.212C110.084 20.0855 109.987 19.7357 109.919 19.3119C109.852 18.8814 109.818 18.4576 109.818 18.0405ZM110.192 13.7117L110.212 15.2959H108.527C108.11 15.2959 107.743 15.3396 107.427 15.4271C107.111 15.5078 106.852 15.6289 106.65 15.7903C106.448 15.945 106.297 16.1334 106.196 16.3554C106.095 16.5706 106.045 16.8162 106.045 17.092C106.045 17.3611 106.105 17.6032 106.226 17.8185C106.354 18.0338 106.536 18.2053 106.771 18.3331C107.013 18.4542 107.296 18.5147 107.619 18.5147C108.09 18.5147 108.5 18.4206 108.85 18.2322C109.2 18.0371 109.472 17.8017 109.667 17.5259C109.862 17.2501 109.966 16.9877 109.98 16.7388L110.747 17.8891C110.653 18.1649 110.511 18.4576 110.323 18.767C110.135 19.0765 109.892 19.3657 109.596 19.6348C109.3 19.9039 108.944 20.1259 108.527 20.3008C108.11 20.4757 107.625 20.5631 107.074 20.5631C106.368 20.5631 105.735 20.4219 105.177 20.1393C104.618 19.8568 104.178 19.47 103.855 18.9789C103.532 18.4878 103.371 17.9295 103.371 17.3039C103.371 16.7254 103.478 16.2141 103.694 15.7701C103.909 15.3262 104.228 14.9528 104.652 14.6501C105.076 14.3406 105.601 14.1086 106.226 13.9538C106.859 13.7924 107.582 13.7117 108.396 13.7117H110.192Z" fill="#363636"/>
<path d="M117.361 11.6734V20.3613H114.697V9.44339H117.22L117.361 11.6734ZM120.681 9.37276L120.641 11.855C120.493 11.8281 120.325 11.8079 120.136 11.7945C119.955 11.781 119.783 11.7743 119.622 11.7743C119.211 11.7743 118.851 11.8315 118.542 11.9458C118.232 12.0535 117.973 12.2116 117.765 12.4201C117.563 12.6286 117.408 12.8843 117.301 13.187C117.193 13.483 117.133 13.8193 117.119 14.196L116.544 14.1254C116.544 13.4325 116.615 12.7901 116.756 12.1981C116.897 11.6061 117.102 11.0881 117.371 10.6442C117.64 10.2002 117.977 9.8571 118.38 9.61493C118.791 9.36603 119.262 9.24158 119.793 9.24158C119.941 9.24158 120.099 9.25503 120.267 9.28194C120.442 9.30212 120.58 9.3324 120.681 9.37276Z" fill="#363636"/>
<path d="M128.284 18.0405V4.8623H130.969V20.3613H128.547L128.284 18.0405ZM121.272 15.0335V14.8216C121.272 13.9875 121.366 13.2307 121.554 12.5513C121.749 11.8651 122.032 11.2765 122.402 10.7854C122.772 10.2944 123.219 9.91428 123.744 9.6452C124.275 9.37612 124.877 9.24158 125.55 9.24158C126.202 9.24158 126.771 9.37276 127.255 9.63511C127.746 9.89746 128.163 10.2708 128.506 10.7552C128.856 11.2395 129.135 11.8147 129.344 12.4806C129.553 13.1399 129.704 13.8664 129.798 14.6602V15.2353C129.704 16.0089 129.553 16.7186 129.344 17.3644C129.135 18.0102 128.856 18.5753 128.506 19.0596C128.163 19.5373 127.746 19.9072 127.255 20.1696C126.764 20.4319 126.189 20.5631 125.53 20.5631C124.864 20.5631 124.265 20.4252 123.734 20.1494C123.209 19.8736 122.762 19.4868 122.392 18.989C122.028 18.4912 121.749 17.906 121.554 17.2333C121.366 16.5606 121.272 15.8273 121.272 15.0335ZM123.946 14.8216V15.0335C123.946 15.5044 123.986 15.945 124.067 16.3554C124.147 16.7657 124.279 17.129 124.46 17.4452C124.642 17.7546 124.874 17.9968 125.156 18.1717C125.446 18.3466 125.795 18.434 126.206 18.434C126.731 18.434 127.161 18.3197 127.497 18.0909C127.84 17.8555 128.106 17.536 128.295 17.1323C128.483 16.722 128.604 16.2612 128.658 15.75V14.1657C128.631 13.7621 128.56 13.3888 128.446 13.0457C128.338 12.7026 128.184 12.4066 127.982 12.1577C127.787 11.9088 127.545 11.7138 127.255 11.5725C126.966 11.4312 126.623 11.3606 126.226 11.3606C125.816 11.3606 125.466 11.4514 125.177 11.633C124.887 11.8079 124.652 12.0535 124.47 12.3696C124.289 12.6858 124.154 13.0524 124.067 13.4695C123.986 13.8866 123.946 14.3373 123.946 14.8216Z" fill="#363636"/>
<path d="M63.9059 31.5609V42.4788H61.2319V31.5609H63.9059ZM61.0503 28.7053C61.0503 28.3084 61.1848 27.9788 61.4539 27.7164C61.7297 27.4541 62.0997 27.3229 62.5639 27.3229C63.028 27.3229 63.3947 27.4541 63.6637 27.7164C63.9395 27.9788 64.0774 28.3084 64.0774 28.7053C64.0774 29.0954 63.9395 29.4217 63.6637 29.6841C63.3947 29.9464 63.028 30.0776 62.5639 30.0776C62.0997 30.0776 61.7297 29.9464 61.4539 29.6841C61.1848 29.4217 61.0503 29.0954 61.0503 28.7053Z" fill="#363636"/>
<path d="M68.8555 33.8918V42.4788H66.1916V31.5609H68.694L68.8555 33.8918ZM68.4317 36.6263H67.6446C67.6514 35.8325 67.759 35.1127 67.9675 34.467C68.1761 33.8212 68.4687 33.2662 68.8454 32.802C69.2288 32.3379 69.6829 31.9813 70.2076 31.7324C70.7323 31.4835 71.3176 31.3591 71.9634 31.3591C72.4881 31.3591 72.9623 31.4331 73.3861 31.5811C73.8099 31.7291 74.1732 31.9645 74.4759 32.2874C74.7853 32.6103 75.0208 33.0341 75.1822 33.5588C75.3504 34.0768 75.4345 34.7159 75.4345 35.476V42.4788H72.7504V35.4558C72.7504 34.958 72.6764 34.5645 72.5284 34.2752C72.3872 33.986 72.1786 33.7808 71.9028 33.6597C71.6337 33.5386 71.3008 33.4781 70.9039 33.4781C70.4935 33.4781 70.1336 33.5622 69.8242 33.7303C69.5215 33.8918 69.2658 34.1171 69.0573 34.4064C68.8555 34.6957 68.7008 35.0287 68.5931 35.4054C68.4855 35.7821 68.4317 36.1891 68.4317 36.6263Z" fill="#363636"/>
<path d="M80.1924 33.8918V42.4788H77.5285V31.5609H80.0309L80.1924 33.8918ZM79.7686 36.6263H78.9815C78.9882 35.8325 79.0959 35.1127 79.3044 34.467C79.5129 33.8212 79.8056 33.2662 80.1823 32.802C80.5657 32.3379 81.0198 31.9813 81.5445 31.7324C82.0692 31.4835 82.6544 31.3591 83.3002 31.3591C83.8249 31.3591 84.2992 31.4331 84.723 31.5811C85.1468 31.7291 85.5101 31.9645 85.8128 32.2874C86.1222 32.6103 86.3577 33.0341 86.5191 33.5588C86.6873 34.0768 86.7714 34.7159 86.7714 35.476V42.4788H84.0873V35.4558C84.0873 34.958 84.0133 34.5645 83.8653 34.2752C83.724 33.986 83.5155 33.7808 83.2397 33.6597C82.9706 33.5386 82.6376 33.4781 82.2407 33.4781C81.8304 33.4781 81.4705 33.5622 81.1611 33.7303C80.8583 33.8918 80.6027 34.1171 80.3942 34.4064C80.1924 34.6957 80.0376 35.0287 79.93 35.4054C79.8224 35.7821 79.7686 36.1891 79.7686 36.6263Z" fill="#363636"/>
<path d="M88.4415 37.1308V36.9189C88.4415 36.1184 88.5559 35.3818 88.7846 34.7091C89.0133 34.0297 89.3463 33.4411 89.7836 32.9433C90.2208 32.4455 90.7556 32.0587 91.388 31.7829C92.0203 31.5003 92.7401 31.3591 93.5473 31.3591C94.368 31.3591 95.0945 31.5003 95.7269 31.7829C96.366 32.0587 96.9041 32.4455 97.3414 32.9433C97.7786 33.4411 98.1116 34.0297 98.3403 34.7091C98.569 35.3818 98.6834 36.1184 98.6834 36.9189V37.1308C98.6834 37.9246 98.569 38.6612 98.3403 39.3407C98.1116 40.0134 97.7786 40.602 97.3414 41.1065C96.9041 41.6043 96.3693 41.9911 95.737 42.2669C95.1046 42.5427 94.3815 42.6806 93.5675 42.6806C92.7603 42.6806 92.0371 42.5427 91.3981 42.2669C90.759 41.9911 90.2208 41.6043 89.7836 41.1065C89.3463 40.602 89.0133 40.0134 88.7846 39.3407C88.5559 38.6612 88.4415 37.9246 88.4415 37.1308ZM91.1054 36.9189V37.1308C91.1054 37.6085 91.1525 38.0558 91.2467 38.4729C91.3409 38.89 91.4855 39.2566 91.6806 39.5727C91.8757 39.8889 92.1279 40.1378 92.4374 40.3194C92.7536 40.4943 93.1303 40.5818 93.5675 40.5818C93.998 40.5818 94.368 40.4943 94.6775 40.3194C94.9869 40.1378 95.2392 39.8889 95.4343 39.5727C95.6361 39.2566 95.7841 38.89 95.8782 38.4729C95.9724 38.0558 96.0195 37.6085 96.0195 37.1308V36.9189C96.0195 36.4481 95.9724 36.0074 95.8782 35.5971C95.7841 35.18 95.6361 34.8134 95.4343 34.4972C95.2392 34.1743 94.9836 33.9221 94.6674 33.7404C94.3579 33.5521 93.9846 33.4579 93.5473 33.4579C93.1168 33.4579 92.7468 33.5521 92.4374 33.7404C92.1279 33.9221 91.8757 34.1743 91.6806 34.4972C91.4855 34.8134 91.3409 35.18 91.2467 35.5971C91.1525 36.0074 91.1054 36.4481 91.1054 36.9189Z" fill="#363636"/>
<path d="M103.875 40.4607L106.418 31.5609H109.203L105.459 42.4788H103.764L103.875 40.4607ZM102.019 31.5609L104.592 40.4809L104.682 42.4788H102.977L99.2234 31.5609H102.019Z" fill="#363636"/>
<path d="M116.251 40.158V35.1228C116.251 34.7528 116.187 34.4333 116.06 34.1642C115.932 33.8952 115.737 33.6866 115.474 33.5386C115.212 33.3906 114.879 33.3166 114.475 33.3166C114.119 33.3166 113.806 33.3772 113.537 33.4983C113.275 33.6194 113.073 33.7909 112.932 34.0129C112.79 34.2281 112.72 34.477 112.72 34.7596H110.046C110.046 34.3089 110.153 33.8817 110.369 33.4781C110.584 33.0677 110.89 32.7045 111.287 32.3883C111.69 32.0654 112.171 31.8132 112.73 31.6315C113.295 31.4499 113.927 31.3591 114.627 31.3591C115.454 31.3591 116.191 31.5003 116.837 31.7829C117.489 32.0587 118 32.4758 118.37 33.0341C118.747 33.5924 118.935 34.2954 118.935 35.143V39.9057C118.935 40.4506 118.969 40.9181 119.036 41.3083C119.11 41.6917 119.218 42.0247 119.359 42.3073V42.4788H116.645C116.517 42.203 116.42 41.8532 116.352 41.4294C116.285 40.9989 116.251 40.5751 116.251 40.158ZM116.625 35.8292L116.645 37.4134H114.96C114.543 37.4134 114.176 37.4571 113.86 37.5446C113.544 37.6253 113.285 37.7464 113.083 37.9078C112.881 38.0625 112.73 38.2509 112.629 38.4729C112.528 38.6881 112.478 38.9337 112.478 39.2095C112.478 39.4786 112.538 39.7207 112.659 39.936C112.787 40.1513 112.969 40.3228 113.204 40.4506C113.446 40.5717 113.729 40.6322 114.052 40.6322C114.523 40.6322 114.933 40.5381 115.283 40.3497C115.632 40.1546 115.905 39.9192 116.1 39.6434C116.295 39.3676 116.399 39.1052 116.413 38.8563L117.18 40.0066C117.086 40.2824 116.944 40.5751 116.756 40.8845C116.568 41.194 116.325 41.4832 116.029 41.7523C115.733 42.0214 115.377 42.2434 114.96 42.4183C114.543 42.5932 114.058 42.6806 113.507 42.6806C112.8 42.6806 112.168 42.5393 111.61 42.2568C111.051 41.9743 110.611 41.5875 110.288 41.0964C109.965 40.6053 109.804 40.047 109.804 39.4214C109.804 38.8429 109.911 38.3316 110.126 37.8876C110.342 37.4436 110.661 37.0703 111.085 36.7676C111.509 36.4581 112.034 36.2261 112.659 36.0713C113.291 35.9099 114.015 35.8292 114.829 35.8292H116.625Z" fill="#363636"/>
<path d="M126.297 31.5609V33.4781H120.041V31.5609H126.297ZM121.716 28.8768H124.39V39.3306C124.39 39.6535 124.433 39.9024 124.521 40.0773C124.608 40.2522 124.739 40.3699 124.914 40.4304C125.089 40.491 125.298 40.5213 125.54 40.5213C125.715 40.5213 125.876 40.5112 126.024 40.491C126.172 40.4708 126.297 40.4506 126.398 40.4304L126.408 42.4284C126.186 42.5023 125.933 42.5629 125.651 42.61C125.375 42.6571 125.062 42.6806 124.712 42.6806C124.114 42.6806 123.589 42.5797 123.138 42.3779C122.688 42.1694 122.338 41.8364 122.089 41.3789C121.84 40.9148 121.716 40.3026 121.716 39.5425V28.8768Z" fill="#363636"/>
<path d="M130.691 31.5609V42.4788H128.017V31.5609H130.691ZM127.836 28.7053C127.836 28.3084 127.97 27.9788 128.239 27.7164C128.515 27.4541 128.885 27.3229 129.349 27.3229C129.813 27.3229 130.18 27.4541 130.449 27.7164C130.725 27.9788 130.863 28.3084 130.863 28.7053C130.863 29.0954 130.725 29.4217 130.449 29.6841C130.18 29.9464 129.813 30.0776 129.349 30.0776C128.885 30.0776 128.515 29.9464 128.239 29.6841C127.97 29.4217 127.836 29.0954 127.836 28.7053Z" fill="#363636"/>
<path d="M132.553 37.1308V36.9189C132.553 36.1184 132.668 35.3818 132.896 34.7091C133.125 34.0297 133.458 33.4411 133.895 32.9433C134.332 32.4455 134.867 32.0587 135.5 31.7829C136.132 31.5003 136.852 31.3591 137.659 31.3591C138.48 31.3591 139.206 31.5003 139.838 31.7829C140.478 32.0587 141.016 32.4455 141.453 32.9433C141.89 33.4411 142.223 34.0297 142.452 34.7091C142.681 35.3818 142.795 36.1184 142.795 36.9189V37.1308C142.795 37.9246 142.681 38.6612 142.452 39.3407C142.223 40.0134 141.89 40.602 141.453 41.1065C141.016 41.6043 140.481 41.9911 139.849 42.2669C139.216 42.5427 138.493 42.6806 137.679 42.6806C136.872 42.6806 136.149 42.5427 135.51 42.2669C134.871 41.9911 134.332 41.6043 133.895 41.1065C133.458 40.602 133.125 40.0134 132.896 39.3407C132.668 38.6612 132.553 37.9246 132.553 37.1308ZM135.217 36.9189V37.1308C135.217 37.6085 135.264 38.0558 135.358 38.4729C135.452 38.89 135.597 39.2566 135.792 39.5727C135.987 39.8889 136.24 40.1378 136.549 40.3194C136.865 40.4943 137.242 40.5818 137.679 40.5818C138.11 40.5818 138.48 40.4943 138.789 40.3194C139.099 40.1378 139.351 39.8889 139.546 39.5727C139.748 39.2566 139.896 38.89 139.99 38.4729C140.084 38.0558 140.131 37.6085 140.131 37.1308V36.9189C140.131 36.4481 140.084 36.0074 139.99 35.5971C139.896 35.18 139.748 34.8134 139.546 34.4972C139.351 34.1743 139.095 33.9221 138.779 33.7404C138.47 33.5521 138.096 33.4579 137.659 33.4579C137.228 33.4579 136.858 33.5521 136.549 33.7404C136.24 33.9221 135.987 34.1743 135.792 34.4972C135.597 34.8134 135.452 35.18 135.358 35.5971C135.264 36.0074 135.217 36.4481 135.217 36.9189Z" fill="#363636"/>
<path d="M147.139 33.8918V42.4788H144.475V31.5609H146.978L147.139 33.8918ZM146.715 36.6263H145.928C145.935 35.8325 146.043 35.1127 146.251 34.467C146.46 33.8212 146.752 33.2662 147.129 32.802C147.513 32.3379 147.967 31.9813 148.491 31.7324C149.016 31.4835 149.601 31.3591 150.247 31.3591C150.772 31.3591 151.246 31.4331 151.67 31.5811C152.094 31.7291 152.457 31.9645 152.76 32.2874C153.069 32.6103 153.304 33.0341 153.466 33.5588C153.634 34.0768 153.718 34.7159 153.718 35.476V42.4788H151.034V35.4558C151.034 34.958 150.96 34.5645 150.812 34.2752C150.671 33.986 150.462 33.7808 150.186 33.6597C149.917 33.5386 149.584 33.4781 149.188 33.4781C148.777 33.4781 148.417 33.5622 148.108 33.7303C147.805 33.8918 147.55 34.1171 147.341 34.4064C147.139 34.6957 146.984 35.0287 146.877 35.4054C146.769 35.7821 146.715 36.1891 146.715 36.6263Z" fill="#363636"/>
<path d="M163.627 26.9798V42.4788H160.953V26.9798H163.627Z" fill="#363636"/>
<path d="M171.978 40.158V35.1228C171.978 34.7528 171.914 34.4333 171.786 34.1642C171.658 33.8952 171.463 33.6866 171.201 33.5386C170.938 33.3906 170.605 33.3166 170.202 33.3166C169.845 33.3166 169.532 33.3772 169.263 33.4983C169.001 33.6194 168.799 33.7909 168.658 34.0129C168.516 34.2281 168.446 34.477 168.446 34.7596H165.772C165.772 34.3089 165.88 33.8817 166.095 33.4781C166.31 33.0677 166.616 32.7045 167.013 32.3883C167.417 32.0654 167.898 31.8132 168.456 31.6315C169.021 31.4499 169.653 31.3591 170.353 31.3591C171.18 31.3591 171.917 31.5003 172.563 31.7829C173.215 32.0587 173.727 32.4758 174.097 33.0341C174.473 33.5924 174.662 34.2954 174.662 35.143V39.9057C174.662 40.4506 174.695 40.9181 174.763 41.3083C174.837 41.6917 174.944 42.0247 175.085 42.3073V42.4788H172.371C172.243 42.203 172.146 41.8532 172.078 41.4294C172.011 40.9989 171.978 40.5751 171.978 40.158ZM172.351 35.8292L172.371 37.4134H170.686C170.269 37.4134 169.902 37.4571 169.586 37.5446C169.27 37.6253 169.011 37.7464 168.809 37.9078C168.607 38.0625 168.456 38.2509 168.355 38.4729C168.254 38.6881 168.204 38.9337 168.204 39.2095C168.204 39.4786 168.264 39.7207 168.385 39.936C168.513 40.1513 168.695 40.3228 168.93 40.4506C169.172 40.5717 169.455 40.6322 169.778 40.6322C170.249 40.6322 170.659 40.5381 171.009 40.3497C171.359 40.1546 171.631 39.9192 171.826 39.6434C172.021 39.3676 172.126 39.1052 172.139 38.8563L172.906 40.0066C172.812 40.2824 172.67 40.5751 172.482 40.8845C172.294 41.194 172.052 41.4832 171.756 41.7523C171.46 42.0214 171.103 42.2434 170.686 42.4183C170.269 42.5932 169.785 42.6806 169.233 42.6806C168.527 42.6806 167.894 42.5393 167.336 42.2568C166.778 41.9743 166.337 41.5875 166.014 41.0964C165.691 40.6053 165.53 40.047 165.53 39.4214C165.53 38.8429 165.637 38.3316 165.853 37.8876C166.068 37.4436 166.387 37.0703 166.811 36.7676C167.235 36.4581 167.76 36.2261 168.385 36.0713C169.018 35.9099 169.741 35.8292 170.555 35.8292H172.351Z" fill="#363636"/>
<path d="M176.846 26.9798H179.52V40.0672L179.258 42.4788H176.846V26.9798ZM186.543 36.9089V37.1208C186.543 37.9347 186.453 38.6814 186.271 39.3608C186.096 40.0403 185.83 40.6289 185.474 41.1267C185.117 41.6178 184.673 42.0012 184.142 42.277C183.617 42.5461 183.002 42.6806 182.295 42.6806C181.623 42.6806 181.037 42.5494 180.54 42.2871C180.048 42.0247 179.635 41.6548 179.298 41.1771C178.962 40.6928 178.693 40.1244 178.491 39.4718C178.289 38.8126 178.138 38.0928 178.037 37.3125V36.7373C178.138 35.9503 178.289 35.2305 178.491 34.5779C178.693 33.9254 178.962 33.357 179.298 32.8727C179.635 32.3883 180.048 32.015 180.54 31.7526C181.031 31.4903 181.609 31.3591 182.275 31.3591C182.988 31.3591 183.61 31.497 184.142 31.7728C184.68 32.0419 185.124 32.4253 185.474 32.9231C185.83 33.4142 186.096 33.9994 186.271 34.6789C186.453 35.3516 186.543 36.0949 186.543 36.9089ZM183.869 37.1208V36.9089C183.869 36.4447 183.832 36.0074 183.758 35.5971C183.684 35.18 183.563 34.8134 183.395 34.4972C183.227 34.1811 182.998 33.9322 182.709 33.7505C182.42 33.5689 182.056 33.4781 181.619 33.4781C181.202 33.4781 180.846 33.5487 180.55 33.69C180.26 33.8313 180.018 34.0263 179.823 34.2752C179.635 34.5241 179.487 34.8168 179.379 35.1531C179.278 35.4895 179.211 35.8527 179.177 36.2429V37.817C179.224 38.335 179.335 38.8025 179.51 39.2196C179.685 39.6299 179.944 39.9562 180.287 40.1984C180.637 40.4405 181.088 40.5616 181.639 40.5616C182.07 40.5616 182.43 40.4775 182.719 40.3093C183.008 40.1344 183.237 39.8923 183.405 39.5828C183.573 39.2667 183.691 38.9 183.758 38.483C183.832 38.0659 183.869 37.6118 183.869 37.1208Z" fill="#363636"/>
<path d="M194.278 39.492C194.278 39.2633 194.217 39.0581 194.096 38.8765C193.975 38.6949 193.746 38.5301 193.41 38.3821C193.081 38.2273 192.596 38.0827 191.957 37.9482C191.392 37.8271 190.871 37.6757 190.393 37.4941C189.915 37.3125 189.505 37.0938 189.162 36.8382C188.819 36.5759 188.55 36.2698 188.355 35.92C188.166 35.5635 188.072 35.1531 188.072 34.6889C188.072 34.2382 188.17 33.8144 188.365 33.4175C188.56 33.0139 188.843 32.6608 189.212 32.358C189.582 32.0486 190.033 31.8064 190.565 31.6315C191.096 31.4499 191.695 31.3591 192.361 31.3591C193.289 31.3591 194.086 31.5104 194.752 31.8132C195.425 32.1159 195.939 32.5329 196.296 33.0644C196.653 33.5891 196.831 34.1811 196.831 34.8403H194.167C194.167 34.551 194.1 34.2887 193.965 34.0532C193.837 33.8178 193.639 33.6294 193.37 33.4882C193.101 33.3402 192.761 33.2662 192.351 33.2662C191.981 33.2662 191.668 33.3267 191.412 33.4478C191.163 33.5689 190.975 33.727 190.847 33.9221C190.719 34.1171 190.655 34.3324 190.655 34.5679C190.655 34.7428 190.689 34.9008 190.756 35.0421C190.83 35.1767 190.948 35.3011 191.109 35.4155C191.271 35.5298 191.49 35.6341 191.765 35.7283C192.048 35.8224 192.394 35.9133 192.805 36.0007C193.619 36.1622 194.328 36.3774 194.934 36.6465C195.546 36.9089 196.024 37.2587 196.367 37.6959C196.71 38.1332 196.881 38.6915 196.881 39.3709C196.881 39.8553 196.777 40.2993 196.568 40.7029C196.36 41.0998 196.057 41.4462 195.66 41.7422C195.263 42.0382 194.789 42.2703 194.238 42.4384C193.686 42.5999 193.064 42.6806 192.371 42.6806C191.368 42.6806 190.521 42.5023 189.828 42.1458C189.135 41.7826 188.61 41.3251 188.254 40.7735C187.897 40.2152 187.719 39.6367 187.719 39.0379H190.272C190.292 39.4618 190.407 39.8015 190.615 40.0571C190.824 40.3127 191.086 40.4977 191.402 40.6121C191.725 40.7197 192.065 40.7735 192.421 40.7735C192.825 40.7735 193.165 40.7197 193.44 40.6121C193.716 40.4977 193.925 40.3463 194.066 40.158C194.207 39.9629 194.278 39.7409 194.278 39.492Z" fill="#363636"/>
<rect x="0.452148" y="0.924805" width="49.15" height="49.15" fill="#C42032"/>
<rect x="13.8562" y="14.7754" width="2.79261" height="21.4473" fill="white"/>
<rect x="26.2554" y="23.377" width="2.79261" height="9.60659" transform="rotate(90 26.2554 23.377)" fill="white"/>
<rect x="26.2554" y="14.7754" width="2.79261" height="21.4473" fill="white"/>
<rect x="32.8467" y="22.3711" width="2.79261" height="13.8514" fill="white"/>
<ellipse cx="34.2995" cy="17.6806" rx="2.01068" ry="2.01068" fill="white"/>
</svg>
