<svg width="80" height="80" viewBox="0 0 80 80" fill="none" xmlns="http://www.w3.org/2000/svg">
<path d="M36 37V35.75C36 31.04 33.0875 27.0025 28.9713 25.3288C30.21 24.1863 31 22.5637 31 20.75C31 17.3038 28.1963 14.5 24.75 14.5C21.3037 14.5 18.5 17.3038 18.5 20.75C18.5 22.5637 19.29 24.1863 20.5287 25.3288C16.4125 27.0025 13.5 31.04 13.5 35.75V37H36ZM21 20.75C21 18.6825 22.6825 17 24.75 17C26.8175 17 28.5 18.6825 28.5 20.75C28.5 22.8175 26.8175 24.5 24.75 24.5C22.6825 24.5 21 22.8175 21 20.75ZM24.75 27C29.1512 27 32.8025 30.265 33.4113 34.5H16.0887C16.6975 30.265 20.3488 27 24.75 27ZM29.75 47H19.75V44.5H29.75V47ZM23.5 63.1863V72.625C23.5 76.415 26.585 79.5 30.375 79.5C34.165 79.5 37.25 76.415 37.25 72.625V69.5C37.25 66.7425 39.4925 64.5 42.25 64.5C45.0075 64.5 47.25 66.7425 47.25 69.5V72C47.25 76.1363 50.6138 79.5 54.75 79.5C58.8862 79.5 62.25 76.1363 62.25 72V59.5H64.75V53.7363C68.465 52.2212 71 48.5687 71 44.5C71 38.9863 66.5137 34.5 61 34.5C55.4863 34.5 51 38.9863 51 44.5C51 48.6275 53.4875 52.2188 57.25 53.7387V59.5H59.75V72C59.75 74.7575 57.5075 77 54.75 77C51.9925 77 49.75 74.7575 49.75 72V69.5C49.75 65.3638 46.3862 62 42.25 62C38.1138 62 34.75 65.3638 34.75 69.5V72.625C34.75 75.0375 32.7875 77 30.375 77C27.9625 77 26 75.0375 26 72.625V63.1863C38.5137 62.53 48.5 52.1738 48.5 39.5V30.75V27V23.25H41V8.25C41 4.80375 38.1963 2 34.75 2H14.75C11.3038 2 8.5 4.80375 8.5 8.25V23.25H1V27V30.75V39.5C1 52.1738 10.9862 62.53 23.5 63.1863ZM62.25 57H59.75V50.75C59.75 50.06 60.31 49.5 61 49.5C61.69 49.5 62.25 50.06 62.25 50.75V57ZM53.5 44.5C53.5 40.3638 56.8638 37 61 37C65.1363 37 68.5 40.3638 68.5 44.5C68.5 47.195 67.0125 49.6437 64.75 50.9675V50.75C64.75 48.6825 63.0675 47 61 47C58.9325 47 57.25 48.6825 57.25 50.75V50.975C54.9637 49.66 53.5 47.2388 53.5 44.5ZM46 25.75V27V28.25H41V25.75H46ZM11 42H38.5V45.75C38.5 47.8175 36.8175 49.5 34.75 49.5H14.75C12.6825 49.5 11 47.8175 11 45.75V42ZM38.5 39.5H11V12H38.5V39.5ZM14.75 4.5H34.75C36.8175 4.5 38.5 6.1825 38.5 8.25V9.5H11V8.25C11 6.1825 12.6825 4.5 14.75 4.5ZM3.5 25.75H8.5V28.25H3.5V27V25.75ZM3.5 30.75H8.5V45.75C8.5 49.1963 11.3038 52 14.75 52H34.75C38.1963 52 41 49.1963 41 45.75V30.75H46V39.5C46 51.2175 36.4675 60.75 24.75 60.75C13.0325 60.75 3.5 51.2175 3.5 39.5V30.75ZM68.4113 2C65.7175 2 63.1825 3.05 61.2775 4.955L61 5.2325L60.7225 4.955C58.8175 3.05 56.2837 2 53.5887 2C48.0262 2 43.5 6.52625 43.5 12.0887V12.9C43.5 15.8725 44.8025 18.68 47.0725 20.6012L61 32.3875L74.9275 20.6025C77.1975 18.6812 78.5 15.8737 78.5 12.9012V12.0887C78.5 6.52625 73.9737 2 68.4113 2ZM53.5887 4.5C55.615 4.5 57.5212 5.29 58.955 6.7225L61 8.7675L63.045 6.7225C64.4775 5.29 66.385 4.5 68.4113 4.5C72.5663 4.5 75.9475 7.85625 75.9963 12H66.35L64.5187 17.4925L61.2138 10.8825L57.3662 16.0125L54.2075 10.75H46.125C46.7612 7.2025 49.8625 4.5 53.5887 4.5ZM73.3138 18.6925L61 29.1125L48.6862 18.6925C47.0687 17.3225 46.115 15.355 46.0187 13.25H52.7912L57.1338 20.4875L60.7862 15.6175L64.9813 24.0075L68.1513 14.5H75.8288C75.4788 16.1225 74.6063 17.5988 73.3138 18.6925Z" fill="#4B3687"/>
<rect x="0.5" y="0.5" width="79" height="79" stroke="white"/>
</svg>
