<svg width="21" height="21" viewBox="0 0 21 21" fill="none" xmlns="http://www.w3.org/2000/svg">
<path fill-rule="evenodd" clip-rule="evenodd" d="M1.07716 0.638599C0.994177 0.720946 0.926317 0.994218 0.926317 1.24553C0.926317 1.6656 1.15197 1.75425 3.73678 2.34776C12.3916 4.33549 13.7175 4.70879 14.9022 5.49119C16.4186 6.49238 17.599 7.84084 18.3798 9.46379L19.0155 10.7854L19.1363 15.3603C19.2025 17.8764 19.2716 19.9579 19.2896 19.986C19.3074 20.014 19.552 20.0368 19.8331 20.0368H20.3441L20.3416 15.8178C20.339 11.2553 20.2057 10.3745 19.2268 8.45814C18.5531 7.13855 16.7003 5.14798 15.4886 4.44122C14.047 3.60066 12.8237 3.22248 7.31925 1.9159C0.771589 0.361465 1.25601 0.460485 1.07716 0.638599ZM0.947779 4.5441C0.839244 4.7458 0.813081 5.0089 0.889526 5.12846C1.03342 5.35395 11.099 9.66712 11.481 9.66712C11.5995 9.66712 11.9799 9.52642 12.3264 9.35461C14.0791 8.48477 15.7165 10.8324 14.3235 12.2179C13.3635 13.1731 11.7998 12.7498 11.3569 11.4147C11.1309 10.733 11.0638 10.7006 6.50514 9.06873C3.96264 8.15864 1.69056 7.39494 1.45612 7.37156C0.955751 7.32154 0.748287 8.05738 1.172 8.37945C1.31794 8.49047 3.34434 9.25599 5.67528 10.0807C9.88137 11.5688 9.91755 11.5867 10.4647 12.448C11.1795 13.5726 12.1038 14.0144 13.4694 13.8839C14.3726 13.7975 14.6064 13.6749 15.257 12.9456C16.4417 11.6176 16.4262 10.0709 15.2161 8.86723C14.3881 8.04356 13.2848 7.7591 12.1195 8.06917C11.229 8.30625 11.1779 8.29019 6.30728 6.24269C3.60474 5.1067 1.33756 4.1773 1.2693 4.1773C1.20103 4.1773 1.05631 4.3424 0.947779 4.5441ZM0.947779 11.8639C0.839244 12.0656 0.813081 12.3285 0.889526 12.448C0.965971 12.5676 2.68413 13.3691 4.70767 14.2294C6.7312 15.0894 8.59387 15.9863 8.84671 16.2222C9.23548 16.5849 9.30661 16.8631 9.30661 18.0224C9.30661 19.7131 9.42352 20.0368 10.0347 20.0368C10.4216 20.0368 10.5406 19.8985 10.6491 19.3225C10.8414 18.3036 10.5794 16.5605 10.1215 15.8115C9.90631 15.4593 9.28985 14.9495 8.75187 14.6787C7.68206 14.1399 1.4647 11.4971 1.26746 11.4971C1.20021 11.4971 1.05631 11.6622 0.947779 11.8639ZM16.1345 13.9657C15.6131 14.5486 14.2626 15.147 13.4559 15.1525C12.5167 15.159 12.3948 15.5384 12.7151 17.4619C13.1499 20.073 13.1491 20.0709 13.6572 19.9992C14.0484 19.9439 14.1095 19.8107 14.1075 19.0201C14.1063 18.5169 14.0388 17.7333 13.9579 17.2787L13.8107 16.4521L14.829 16.1282L15.8473 15.8043L15.8302 16.5481C15.8205 16.9572 15.748 17.8071 15.6687 18.4368C15.4917 19.8424 15.5501 20.0368 16.1488 20.0368C16.4689 20.0368 16.6563 19.8896 16.732 19.5793C16.9635 18.6273 17.3396 14.1867 17.216 13.8656C17.0381 13.4049 16.5997 13.4455 16.1345 13.9657Z" fill="#C4C4C4"/>
</svg>
