<svg width="36" height="36" viewBox="0 0 36 36" fill="none" xmlns="http://www.w3.org/2000/svg">
<g clip-path="url(#clip0_855_1757)">
<path d="M15.9412 8.74023V28.3197H20.0588V8.74023C19.4254 9.0072 18.7295 9.15475 18 9.15475C17.2705 9.15475 16.5746 9.0072 15.9412 8.74023Z" fill="white"/>
<path d="M25.0542 30.3789C24.48 30.3789 11.5227 30.3789 10.9457 30.3789C9.11544 30.3789 7.62622 31.8681 7.62622 33.6991V34.7484C7.62622 35.1275 7.93347 35.4347 8.3125 35.4347H27.6875C28.0665 35.4347 28.3738 35.1275 28.3738 34.7484V33.6991C28.3738 31.8681 26.8845 30.3789 25.0542 30.3789Z" fill="white"/>
<path d="M26.424 4.86059C27.6064 4.86059 28.5686 5.82275 28.5686 7.00521V11.608L28.5685 11.6081L24.2724 17.1703H26.8741L29.5979 13.6436L32.3218 17.1703H34.9235L30.6274 11.6081V7.00521C30.6274 4.68765 28.7415 2.80176 26.424 2.80176H23.2239C23.3574 3.47788 23.3576 4.18358 23.2239 4.86059H26.424Z" fill="white"/>
<path d="M23.696 19.2285V20.1145C23.696 22.6688 25.7741 24.7469 28.3284 24.7469H30.8676C33.422 24.7469 35.5 22.6688 35.5 20.1145V19.2285C34.7899 19.2285 24.358 19.2285 23.696 19.2285Z" fill="white"/>
<path d="M12.304 20.1145V19.2285C11.5937 19.2285 1.16198 19.2285 0.5 19.2285V20.1145C0.5 22.6688 2.57805 24.7469 5.13237 24.7469H7.6716C10.2259 24.7469 12.304 22.6688 12.304 20.1145Z" fill="white"/>
<path d="M3.67809 17.1703L6.40193 13.6436L9.12576 17.1703H11.7274L7.43134 11.6081L7.43127 11.608V7.00521C7.43127 5.82275 8.39343 4.86059 9.57589 4.86059H12.776C12.6424 4.18447 12.6422 3.47877 12.776 2.80176H9.57589C7.25833 2.80176 5.37244 4.68765 5.37244 7.00521V11.6081L1.07642 17.1703H3.67809Z" fill="white"/>
<path d="M17.9999 7.09604C19.8033 7.09604 21.2652 5.63412 21.2652 3.83074C21.2652 2.02736 19.8033 0.56543 17.9999 0.56543C16.1965 0.56543 14.7346 2.02736 14.7346 3.83074C14.7346 5.63412 16.1965 7.09604 17.9999 7.09604Z" fill="white"/>
</g>
<defs>
<clipPath id="clip0_855_1757">
<rect width="35" height="35" fill="white" transform="translate(0.5 0.5)"/>
</clipPath>
</defs>
</svg>
