<svg width="19" height="18" viewBox="0 0 19 18" fill="none" xmlns="http://www.w3.org/2000/svg">
<path d="M18.1969 6.16922C18.1969 6.75903 18.1156 7.3409 17.9578 7.90025C17.2168 11.8868 10.809 16.7094 10.5364 16.9146C10.4512 16.9775 10.3556 17.0104 10.2582 17.0104C10.161 17.0104 10.0641 16.9813 9.9789 16.9146C9.90559 16.8579 8.10024 15.5033 6.26984 13.6415C6.05067 13.4168 6.02765 13.0294 6.21157 12.7699C6.39993 12.5126 6.72545 12.4813 6.94499 12.6999C8.3094 14.0859 9.68828 15.2063 10.2608 15.6578C12.1853 14.166 16.4338 10.3705 16.9546 7.57126C17.0906 7.07677 17.152 6.62708 17.152 6.17054C17.152 4.58139 16.4244 3.11646 15.2526 2.34903C13.7563 1.36182 11.7533 1.81703 10.6585 3.3861C10.4618 3.66943 10.0572 3.66943 9.85679 3.3861C8.75869 1.81593 6.75718 1.36425 5.26287 2.34726C4.08739 3.11647 3.35971 4.58051 3.35971 6.16812C3.35971 6.62156 3.4243 7.07324 3.54456 7.50947C3.62176 7.91769 3.76948 8.31685 3.95748 8.73102H6.99287L8.03529 5.88259C8.12455 5.63877 8.33779 5.48541 8.55715 5.51277C8.78059 5.53594 8.96692 5.72703 9.01665 5.98652L9.78404 9.844L10.7767 7.90864C10.8703 7.72483 11.0386 7.61252 11.2204 7.61252H13.1043C13.391 7.61252 13.6241 7.88856 13.6241 8.23102C13.6241 8.57171 13.391 8.84929 13.1043 8.84929H11.5124L10.0169 11.7699C9.92155 11.9561 9.75342 12.0673 9.5747 12.0673C9.54631 12.0673 9.51884 12.0647 9.49341 12.06C9.28389 12.0201 9.11891 11.8365 9.06861 11.5927L8.3673 8.07898L7.81315 9.59554C7.73038 9.82348 7.54275 9.96735 7.33583 9.96735H1.27098C0.986296 9.96712 0.750977 9.69042 0.750977 9.34907C0.750977 9.00838 0.986296 8.7308 1.27098 8.7308H2.79591C2.68772 8.42387 2.60031 8.12598 2.54612 7.83781C2.40099 7.33736 2.32249 6.75462 2.32249 6.1679C2.32249 4.12861 3.25523 2.25106 4.76235 1.26385C6.50794 0.115785 8.81789 0.476776 10.2604 2.08844C11.6991 0.476555 14.0073 0.115785 15.7559 1.26385C17.2612 2.24973 18.1969 4.12861 18.1969 6.16922Z" fill="#C4C4C4"/>
</svg>
