<svg width="206" height="50" viewBox="0 0 206 50" fill="none" xmlns="http://www.w3.org/2000/svg">
<rect width="206" height="50" rx="20" fill="#488CF2" fill-opacity="0.79"/>
<path d="M60.7562 31.216C59.4842 31.216 58.3922 30.946 57.4802 30.406C56.5682 29.854 55.8662 29.092 55.3742 28.12C54.8822 27.136 54.6362 26.002 54.6362 24.718C54.6362 23.434 54.8822 22.3 55.3742 21.316C55.8662 20.332 56.5682 19.564 57.4802 19.012C58.3922 18.46 59.4842 18.184 60.7562 18.184C62.2682 18.184 63.5042 18.562 64.4642 19.318C65.4362 20.062 66.0422 21.112 66.2822 22.468H63.7442C63.5882 21.784 63.2522 21.25 62.7362 20.866C62.2322 20.47 61.5602 20.272 60.7202 20.272C59.5562 20.272 58.6442 20.668 57.9842 21.46C57.3242 22.252 56.9942 23.338 56.9942 24.718C56.9942 26.098 57.3242 27.184 57.9842 27.976C58.6442 28.756 59.5562 29.146 60.7202 29.146C61.5602 29.146 62.2322 28.966 62.7362 28.606C63.2522 28.234 63.5882 27.724 63.7442 27.076H66.2822C66.0422 28.372 65.4362 29.386 64.4642 30.118C63.5042 30.85 62.2682 31.216 60.7562 31.216ZM72.5517 31.216C71.6877 31.216 70.9077 31.018 70.2117 30.622C69.5277 30.226 68.9817 29.68 68.5737 28.984C68.1777 28.276 67.9797 27.46 67.9797 26.536C67.9797 25.612 68.1837 24.802 68.5917 24.106C68.9997 23.398 69.5457 22.846 70.2297 22.45C70.9257 22.054 71.7057 21.856 72.5697 21.856C73.4217 21.856 74.1897 22.054 74.8737 22.45C75.5697 22.846 76.1157 23.398 76.5117 24.106C76.9197 24.802 77.1237 25.612 77.1237 26.536C77.1237 27.46 76.9197 28.276 76.5117 28.984C76.1157 29.68 75.5697 30.226 74.8737 30.622C74.1777 31.018 73.4037 31.216 72.5517 31.216ZM72.5517 29.218C73.1517 29.218 73.6737 28.996 74.1177 28.552C74.5617 28.096 74.7837 27.424 74.7837 26.536C74.7837 25.648 74.5617 24.982 74.1177 24.538C73.6737 24.082 73.1577 23.854 72.5697 23.854C71.9577 23.854 71.4297 24.082 70.9857 24.538C70.5537 24.982 70.3377 25.648 70.3377 26.536C70.3377 27.424 70.5537 28.096 70.9857 28.552C71.4297 28.996 71.9517 29.218 72.5517 29.218ZM79.1837 31V22.072H81.2177L81.3977 23.584C81.6737 23.056 82.0697 22.636 82.5857 22.324C83.1137 22.012 83.7317 21.856 84.4397 21.856C85.5437 21.856 86.4017 22.204 87.0137 22.9C87.6257 23.596 87.9317 24.616 87.9317 25.96V31H85.6277V26.176C85.6277 25.408 85.4717 24.82 85.1597 24.412C84.8477 24.004 84.3617 23.8 83.7017 23.8C83.0537 23.8 82.5197 24.028 82.0997 24.484C81.6917 24.94 81.4877 25.576 81.4877 26.392V31H79.1837ZM94.1128 31C93.1768 31 92.4268 30.772 91.8628 30.316C91.2988 29.86 91.0168 29.05 91.0168 27.886V23.998H89.4868V22.072H91.0168L91.2868 19.678H93.3208V22.072H95.7328V23.998H93.3208V27.904C93.3208 28.336 93.4108 28.636 93.5908 28.804C93.7828 28.96 94.1068 29.038 94.5628 29.038H95.6788V31H94.1128ZM100.789 31.216C100.021 31.216 99.391 31.096 98.899 30.856C98.407 30.604 98.041 30.274 97.801 29.866C97.561 29.458 97.441 29.008 97.441 28.516C97.441 27.688 97.765 27.016 98.413 26.5C99.061 25.984 100.033 25.726 101.329 25.726H103.597V25.51C103.597 24.898 103.423 24.448 103.075 24.16C102.727 23.872 102.295 23.728 101.779 23.728C101.311 23.728 100.903 23.842 100.555 24.07C100.207 24.286 99.991 24.61 99.907 25.042H97.657C97.717 24.394 97.933 23.83 98.305 23.35C98.689 22.87 99.181 22.504 99.781 22.252C100.381 21.988 101.053 21.856 101.797 21.856C103.069 21.856 104.071 22.174 104.803 22.81C105.535 23.446 105.901 24.346 105.901 25.51V31H103.939L103.723 29.56C103.459 30.04 103.087 30.436 102.607 30.748C102.139 31.06 101.533 31.216 100.789 31.216ZM101.311 29.416C101.971 29.416 102.481 29.2 102.841 28.768C103.213 28.336 103.447 27.802 103.543 27.166H101.581C100.969 27.166 100.531 27.28 100.267 27.508C100.003 27.724 99.871 27.994 99.871 28.318C99.871 28.666 100.003 28.936 100.267 29.128C100.531 29.32 100.879 29.416 101.311 29.416ZM112.474 31.216C111.562 31.216 110.758 31.018 110.062 30.622C109.366 30.226 108.814 29.674 108.406 28.966C108.01 28.258 107.812 27.448 107.812 26.536C107.812 25.624 108.01 24.814 108.406 24.106C108.814 23.398 109.366 22.846 110.062 22.45C110.758 22.054 111.562 21.856 112.474 21.856C113.614 21.856 114.574 22.156 115.354 22.756C116.134 23.344 116.632 24.16 116.848 25.204H114.418C114.298 24.772 114.058 24.436 113.698 24.196C113.35 23.944 112.936 23.818 112.456 23.818C111.82 23.818 111.28 24.058 110.836 24.538C110.392 25.018 110.17 25.684 110.17 26.536C110.17 27.388 110.392 28.054 110.836 28.534C111.28 29.014 111.82 29.254 112.456 29.254C112.936 29.254 113.35 29.134 113.698 28.894C114.058 28.654 114.298 28.312 114.418 27.868H116.848C116.632 28.876 116.134 29.686 115.354 30.298C114.574 30.91 113.614 31.216 112.474 31.216ZM122.748 31C121.812 31 121.062 30.772 120.498 30.316C119.934 29.86 119.652 29.05 119.652 27.886V23.998H118.122V22.072H119.652L119.922 19.678H121.956V22.072H124.368V23.998H121.956V27.904C121.956 28.336 122.046 28.636 122.226 28.804C122.418 28.96 122.742 29.038 123.198 29.038H124.314V31H122.748ZM135.549 31.216C134.625 31.216 133.791 31.036 133.047 30.676C132.303 30.304 131.709 29.746 131.265 29.002C130.833 28.258 130.617 27.316 130.617 26.176V18.4H132.921V26.194C132.921 27.178 133.155 27.91 133.623 28.39C134.103 28.87 134.763 29.11 135.603 29.11C136.431 29.11 137.085 28.87 137.565 28.39C138.045 27.91 138.285 27.178 138.285 26.194V18.4H140.589V26.176C140.589 27.316 140.361 28.258 139.905 29.002C139.449 29.746 138.837 30.304 138.069 30.676C137.313 31.036 136.473 31.216 135.549 31.216ZM146.577 31.216C145.785 31.216 145.089 31.09 144.489 30.838C143.889 30.574 143.409 30.214 143.049 29.758C142.689 29.302 142.473 28.774 142.401 28.174H144.723C144.795 28.522 144.987 28.822 145.299 29.074C145.623 29.314 146.037 29.434 146.541 29.434C147.045 29.434 147.411 29.332 147.639 29.128C147.879 28.924 147.999 28.69 147.999 28.426C147.999 28.042 147.831 27.784 147.495 27.652C147.159 27.508 146.691 27.37 146.091 27.238C145.707 27.154 145.317 27.052 144.921 26.932C144.525 26.812 144.159 26.662 143.823 26.482C143.499 26.29 143.235 26.05 143.031 25.762C142.827 25.462 142.725 25.096 142.725 24.664C142.725 23.872 143.037 23.206 143.661 22.666C144.297 22.126 145.185 21.856 146.325 21.856C147.381 21.856 148.221 22.102 148.845 22.594C149.481 23.086 149.859 23.764 149.979 24.628H147.801C147.669 23.968 147.171 23.638 146.307 23.638C145.875 23.638 145.539 23.722 145.299 23.89C145.071 24.058 144.957 24.268 144.957 24.52C144.957 24.784 145.131 24.994 145.479 25.15C145.827 25.306 146.289 25.45 146.865 25.582C147.489 25.726 148.059 25.888 148.575 26.068C149.103 26.236 149.523 26.494 149.835 26.842C150.147 27.178 150.303 27.664 150.303 28.3C150.315 28.852 150.171 29.35 149.871 29.794C149.571 30.238 149.139 30.586 148.575 30.838C148.011 31.09 147.345 31.216 146.577 31.216Z" fill="white"/>
</svg>
