<svg width="1440" height="283" viewBox="0 0 1440 283" fill="none" xmlns="http://www.w3.org/2000/svg">
<path fill-rule="evenodd" clip-rule="evenodd" d="M0 0H77.1375C156.613 0 272.403 13.9033 422.349 51.41C572.296 88.9167 758.561 164.792 915.174 175.57C1071.79 186.348 1263.38 129.333 1419.99 113.167C1576.61 97 1713.39 86.2222 1870 113.167C2026.61 140.111 2180.89 183.222 2337.5 188.611C2494.11 194 2648.39 161.667 2727.86 145.5L2805 129.333V291H2727.86C2648.39 291 2494.11 291 2337.5 291C2180.89 291 2026.61 291 1870 291C1713.39 291 1559.11 291 1402.5 291C1245.89 291 1091.61 291 935 291C778.388 291 624.113 291 467.5 291C310.888 291 156.613 291 77.1375 291H0V0Z" fill="#488CF2" fill-opacity="0.79"/>
</svg>
